# xmcd
# 
# Track frame offsets:
#     150
#     18183
#     45212
#     74367
#     95452
#     123625
#     135877
#     156701
#     183714
#     208497
#     239178
#     266235
# 
# Disc length: 4159
# 
# Revision: 3
# Processed by: cddbd v1.5.2PL0 Copyright (c) Steve Scherf et al.
# Submitted via: fre:ac v1.0.27
# 
DISCID=b8103d0c
DTITLE=The Verve - Urban Hymns [Super Deluxe - Disc 4]
DYEAR=2017
DGENRE=Alternative Rock/Britpop
TTITLE0=This Is Music [Live At Haigh Hall, 24.05.98]
TTITLE1=Space And Time [Live At Haigh Hall, 24.05.98]
TTITLE2=Catching The Butterfly [Live At Haigh Hall, 24.05.98]
TTITLE3=Sonnet [Live At Haigh Hall, 24.05.98]
TTITLE4=The Rolling People [Live At Haigh Hall, 24.05.98]
TTITLE5=Neon Wilderness [Live At Haigh Hall, 24.05.98]
TTITLE6=Weeping Willow [Live At Haigh Hall, 24.05.98]
TTITLE7=The Drugs Don't Work [Live At Haigh Hall, 24.05.98]
TTITLE8=Lucky Man [Live At Haigh Hall, 24.05.98]
TTITLE9=Life's An Ocean [Live At Haigh Hall, 24.05.98]
TTITLE10=Velvet Morning [Live At Haigh Hall, 24.05.98]
TTITLE11=Bitter Sweet Symphony [Live At Haigh Hall, 24.05.98]
EXTD=
EXTT0=
EXTT1=
EXTT2=
EXTT3=
EXTT4=
EXTT5=
EXTT6=
EXTT7=
EXTT8=
EXTT9=
EXTT10=
EXTT11=
PLAYORDER=
